<svg width="10" height="10" viewBox="0 0 10 10" fill="none" xmlns="http://www.w3.org/2000/svg">
<path fill-rule="evenodd" clip-rule="evenodd" d="M4.99998 0.333336C5.36817 0.333336 5.66665 0.631813 5.66665 1V4.33334H8.99998C9.36817 4.33334 9.66665 4.63181 9.66665 5C9.66665 5.36819 9.36817 5.66667 8.99998 5.66667H5.66665V9C5.66665 9.36819 5.36817 9.66667 4.99998 9.66667C4.63179 9.66667 4.33331 9.36819 4.33331 9V5.66667L0.99998 5.66667C0.63179 5.66667 0.333313 5.36819 0.333313 5C0.333313 4.63181 0.63179 4.33334 0.99998 4.33334L4.33331 4.33334V1C4.33331 0.631813 4.63179 0.333336 4.99998 0.333336Z" fill="black"/>
</svg>
