<svg width="20" height="20" viewBox="0 0 20 20" fill="none" xmlns="http://www.w3.org/2000/svg">
<path fill-rule="evenodd" clip-rule="evenodd" d="M7 2C5.34315 2 4 3.34315 4 5C4 6.65685 5.34315 8 7 8C7.89152 8 8.69221 7.61112 9.24169 6.99374C9.24685 6.98776 9.25209 6.98183 9.2574 6.97595C9.71977 6.44816 10 5.7568 10 5C10 4.24318 9.71975 3.55182 9.25737 3.02402C9.25208 3.01816 9.24686 3.01225 9.24172 3.00629C8.69223 2.38889 7.89153 2 7 2ZM10.0001 0.99971C9.16442 0.371975 8.12565 0 7 0C4.23858 0 2 2.23858 2 5C2 7.76142 4.23858 10 7 10C8.12565 10 9.16442 9.62803 10.0001 9.00029C10.8354 9.62742 11.8745 10 13 10C15.7614 10 18 7.76142 18 5C18 2.23858 15.7614 0 13 0C11.8745 0 10.8354 0.372577 10.0001 0.99971ZM11.3338 2.50468C11.7575 3.23905 12 4.09121 12 5C12 5.90879 11.7575 6.76095 11.3338 7.49532C11.8107 7.81456 12.3834 8 13 8C14.6569 8 16 6.65685 16 5C16 3.34314 14.6569 2 13 2C12.3834 2 11.8107 2.18544 11.3338 2.50468ZM7 13C4.23858 13 2 15.2386 2 18H12C12 15.2386 9.76142 13 7 13ZM14 18H18C18 15.2386 15.7614 13 13 13C12.6568 13 12.3221 13.0344 11.999 13.1C13.2368 14.3626 14 16.0922 14 18ZM10.0003 11.6738C9.09095 11.2417 8.07371 11 7 11C3.13401 11 0 14.134 0 18V19C0 19.5523 0.447715 20 1 20H19C19.5523 20 20 19.5523 20 19V18C20 14.134 16.866 11 13 11C11.928 11 10.9103 11.2416 10.0003 11.6738Z" fill="white"/>
</svg>
