<svg width="18" height="18" viewBox="0 0 18 18" fill="none" xmlns="http://www.w3.org/2000/svg">
<path fill-rule="evenodd" clip-rule="evenodd" d="M0 2C0 0.895431 0.895431 0 2 0H16C17.1046 0 18 0.895431 18 2V4C18 5.10457 17.1046 6 16 6H2C0.895431 6 0 5.10457 0 4V2ZM16 2H2V4H16V2ZM0 10C0 8.89543 0.895431 8 2 8H8C9.10457 8 10 8.89543 10 10V16C10 17.1046 9.10457 18 8 18H2C0.895431 18 0 17.1046 0 16V10ZM8 10H2V16H8V10ZM12 10C12 8.89543 12.8954 8 14 8H16C17.1046 8 18 8.89543 18 10V16C18 17.1046 17.1046 18 16 18H14C12.8954 18 12 17.1046 12 16V10ZM16 10H14V16H16V10Z" fill="white"/>
</svg>
