<svg width="16" height="20" viewBox="0 0 16 20" fill="none" xmlns="http://www.w3.org/2000/svg">
<path fill-rule="evenodd" clip-rule="evenodd" d="M3 2C2.44772 2 2 2.44772 2 3V17C2 17.5523 2.44772 18 3 18H13C13.5523 18 14 17.5523 14 17L14 7.41421L8.58579 2H3ZM0 3C0 1.34315 1.34315 0 3 0H8.58579C9.11622 0 9.62493 0.210713 10 0.585787L15.4142 6C15.7893 6.37507 16 6.88378 16 7.41421V17C16 18.6569 14.6569 20 13 20H3C1.34315 20 0 18.6569 0 17V3ZM11 8C11.5523 8 12 8.44772 12 9V15C12 15.5523 11.5523 16 11 16C10.4477 16 10 15.5523 10 15V9C10 8.44772 10.4477 8 11 8ZM8 10C8.55228 10 9 10.4477 9 11V15C9 15.5523 8.55228 16 8 16C7.44772 16 7 15.5523 7 15V11C7 10.4477 7.44772 10 8 10ZM5 12C5.55228 12 6 12.4477 6 13V15C6 15.5523 5.55228 16 5 16C4.44772 16 4 15.5523 4 15V13C4 12.4477 4.44772 12 5 12Z" fill="white"/>
</svg>
