<svg width="20" height="16" viewBox="0 0 20 16" fill="none" xmlns="http://www.w3.org/2000/svg">
<path fill-rule="evenodd" clip-rule="evenodd" d="M3 2C2.44772 2 2 2.44772 2 3V13C2 13.5523 2.44772 14 3 14C3.55228 14 4 13.5523 4 13V8C4 6.34315 5.34315 5 7 5H14C14 4.44772 13.5523 4 13 4H8.58579L6.58579 2H3ZM7 7C6.44772 7 6 7.44772 6 8V13C6 13.3506 5.93985 13.6872 5.82929 14H17C17.5523 14 18 13.5523 18 13V8C18 7.44772 17.5523 7 17 7H7ZM3 16C1.34315 16 0 14.6569 0 13V3C0 1.34315 1.34315 0 3 0H7.41421L9.41421 2H13C14.6569 2 16 3.34315 16 5H17C18.6569 5 20 6.34315 20 8V13C20 14.6569 18.6569 16 17 16H3Z" fill="white"/>
</svg>
