<svg width="22" height="18" viewBox="0 0 22 18" fill="none" xmlns="http://www.w3.org/2000/svg">
<path fill-rule="evenodd" clip-rule="evenodd" d="M1 5C1 2.79086 2.79086 1 5 1H17C19.2091 1 21 2.79086 21 5V13C21 15.2091 19.2091 17 17 17H5C2.79086 17 1 15.2091 1 13V5ZM3 8V13C3 14.1046 3.89543 15 5 15H17C18.1046 15 19 14.1046 19 13V8H3ZM19 6H3V5C3 3.89543 3.89543 3 5 3H17C18.1046 3 19 3.89543 19 5V6ZM5 12C5 11.4477 5.44772 11 6 11H7C7.55228 11 8 11.4477 8 12C8 12.5523 7.55228 13 7 13H6C5.44772 13 5 12.5523 5 12ZM10 12C10 11.4477 10.4477 11 11 11H12C12.5523 11 13 11.4477 13 12C13 12.5523 12.5523 13 12 13H11C10.4477 13 10 12.5523 10 12Z" fill="black" stroke="white" stroke-linecap="round" stroke-linejoin="round"/>
</svg>
