<svg width="20" height="20" viewBox="0 0 20 20" fill="none" xmlns="http://www.w3.org/2000/svg">
<path fill-rule="evenodd" clip-rule="evenodd" d="M0 3C0 1.34315 1.34315 0 3 0H13C14.6569 0 16 1.34315 16 3V4H17C18.6569 4 20 5.34315 20 7V13C20 14.6569 18.6569 16 17 16H16V19C16 19.4045 15.7564 19.7691 15.3827 19.9239C15.009 20.0787 14.5789 19.9931 14.2929 19.7071L10.5858 16H7C6.53722 16 6.09842 15.8948 5.70677 15.7074C5.42077 15.9932 4.99085 16.0786 4.61732 15.9239C4.24364 15.7691 4 15.4045 4 15V12H3C1.34315 12 0 10.6569 0 9V3ZM7.41421 14H11C11.2652 14 11.5196 14.1054 11.7071 14.2929L14 16.5858V15C14 14.4477 14.4477 14 15 14H17C17.5523 14 18 13.5523 18 13V7C18 6.44772 17.5523 6 17 6H16V9C16 10.6569 14.6569 12 13 12H9.41421L7.41421 14ZM14 3C14 2.44772 13.5523 2 13 2H3C2.44772 2 2 2.44772 2 3V9C2 9.55229 2.44772 10 3 10H5C5.55228 10 6 10.4477 6 11V12.5858L8.29289 10.2929C8.48043 10.1054 8.73478 10 9 10H13C13.5523 10 14 9.55228 14 9V3Z" fill="white"/>
</svg>
